<svg width="262" height="224" viewBox="0 0 262 224" fill="none" xmlns="http://www.w3.org/2000/svg">
<path d="M56.5262 9.92944C96.2431 31.5932 122.42 92.9737 122.42 92.9737C122.693 97.3073 131.498 119.304 122.42 153.452C111.795 193.42 98.9508 208.814 92.6317 211.222C82.5219 227.83 68.5608 224.761 62.844 221.151C52.7342 223.317 44.7908 214.23 42.0829 209.416C30.5289 207.972 28.2421 193.168 28.543 185.947C22.766 181.614 21.3218 169.098 21.3218 163.381C15.5447 134.496 36.9678 114.637 48.4015 108.319C19.5164 111.207 13.4987 90.8674 14.1005 80.3365C7.60136 76.0037 7.78243 63.4869 8.68536 57.7701C-0.702278 41.8833 -0.642101 25.8763 0.561442 19.8587C2.66764 7.52236 16.8093 -11.7343 56.5262 9.92944Z" fill="#111111"/>
<path d="M205.045 9.79819C165.328 31.4619 139.151 92.8425 139.151 92.8425C138.879 97.1761 130.073 119.173 139.151 153.32C149.777 193.289 162.621 208.683 168.94 211.09C179.05 227.699 193.011 224.63 198.727 221.019C208.837 223.186 216.781 214.099 219.489 209.285C231.043 207.841 233.329 193.037 233.028 185.816C238.805 181.483 240.25 168.966 240.25 163.25C246.027 134.365 224.604 114.506 213.17 108.188C242.055 111.076 248.073 90.7362 247.471 80.2052C253.97 75.8725 253.789 63.3557 252.886 57.6388C262.274 41.7521 262.214 25.7451 261.01 19.7274C258.904 7.39111 244.762 -11.8655 205.045 9.79819Z" fill="#111111"/>
</svg>
